<svg aria-hidden="true" style="position: absolute; width: 0; height: 0; overflow: hidden;" version="1.1" xmlns="http://www.w3.org/2000/svg" xmlns:xlink="http://www.w3.org/1999/xlink">
<defs>
<symbol id="play" viewBox="0 0 48 48">
<path d="M24.217 0.238c-13.048 0-23.662 10.615-23.662 23.662s10.614 23.662 23.662 23.662 23.662-10.615 23.662-23.662c0-13.047-10.614-23.662-23.662-23.662zM24.217 45.591c-11.96 0-21.691-9.73-21.691-21.691s9.73-21.691 21.691-21.691c11.96 0 21.691 9.73 21.691 21.691s-9.73 21.691-21.691 21.691z"></path>
<path d="M33.625 23.072l-13.803-8.873c-0.302-0.197-0.693-0.208-1.005-0.037-0.318 0.173-0.514 0.505-0.514 0.866v17.747c0 0.361 0.196 0.692 0.514 0.866 0.146 0.080 0.31 0.12 0.472 0.12 0.185 0 0.372-0.052 0.533-0.157l13.803-8.873c0.281-0.181 0.453-0.494 0.453-0.829s-0.171-0.648-0.453-0.829zM20.274 30.968v-14.134l10.994 7.067-10.994 7.067z"></path>
</symbol>
<symbol id="_1" viewBox="0 0 83 48">
<path d="M32.466 14.397c1.19 1.432 2.074 3.116 2.651 5.050 0.595 1.916 0.893 3.925 0.893 6.027 0 2.53-0.363 4.799-1.088 6.808-0.725 1.99-1.721 3.646-2.986 4.967-1.302 1.358-2.846 2.381-4.632 3.069s-3.776 1.032-5.971 1.032c-2.4 0-4.539-0.4-6.417-1.2s-3.404-1.897-4.576-3.292c-1.228-1.451-2.148-3.144-2.762-5.078-0.595-1.953-0.893-4.055-0.893-6.306 0-2.214 0.288-4.25 0.865-6.11 0.595-1.86 1.516-3.544 2.762-5.050 1.19-1.451 2.725-2.595 4.604-3.432s4.027-1.256 6.445-1.256c2.548 0 4.734 0.428 6.557 1.283s3.339 2.018 4.548 3.488zM29.843 25.474c0-4.427-0.763-7.859-2.288-10.296-1.507-2.437-3.562-3.655-6.166-3.655-2.641 0-4.725 1.218-6.25 3.655s-2.288 5.869-2.288 10.296c0 4.204 0.725 7.589 2.176 10.156 1.469 2.548 3.571 3.823 6.306 3.823s4.836-1.274 6.306-3.823c1.47-2.567 2.204-5.952 2.204-10.156zM61.484 40.457h-18.806v-1.981c0.558-0.037 1.423-0.112 2.595-0.223 1.19-0.13 2.009-0.26 2.455-0.391 0.577-0.186 1.014-0.484 1.312-0.893 0.316-0.428 0.474-1.060 0.474-1.897v-19.587h-6.948v-2.344h1.535c2.009 0 3.804-0.372 5.385-1.116 1.6-0.744 2.744-1.544 3.432-2.4h2.316c-0.056 1.209-0.112 2.623-0.167 4.241s-0.084 3.069-0.084 4.353v16.546c0 0.651 0.139 1.237 0.419 1.758 0.298 0.502 0.716 0.874 1.256 1.116 0.483 0.205 1.274 0.391 2.371 0.558s1.916 0.26 2.456 0.279v1.981z"></path>
</symbol>
<symbol id="_2" viewBox="0 0 93 48">
<path d="M32.402 14.397c1.19 1.432 2.074 3.116 2.651 5.050 0.595 1.916 0.893 3.925 0.893 6.027 0 2.53-0.363 4.799-1.088 6.808-0.725 1.99-1.721 3.646-2.986 4.967-1.302 1.358-2.846 2.381-4.632 3.069s-3.776 1.032-5.971 1.032c-2.4 0-4.539-0.4-6.417-1.2s-3.404-1.897-4.576-3.292c-1.228-1.451-2.148-3.144-2.762-5.078-0.595-1.953-0.893-4.055-0.893-6.306 0-2.214 0.288-4.25 0.865-6.11 0.595-1.86 1.516-3.544 2.762-5.050 1.19-1.451 2.725-2.595 4.604-3.432s4.027-1.256 6.445-1.256c2.548 0 4.734 0.428 6.557 1.283s3.339 2.018 4.548 3.488zM29.779 25.474c0-4.427-0.763-7.859-2.288-10.296-1.507-2.437-3.562-3.655-6.166-3.655-2.641 0-4.725 1.218-6.25 3.655s-2.288 5.869-2.288 10.296c0 4.204 0.725 7.589 2.176 10.156 1.469 2.548 3.571 3.823 6.306 3.823s4.836-1.274 6.306-3.823c1.469-2.567 2.204-5.952 2.204-10.156zM68.061 40.457h-26.144v-3.795c0.502-0.577 1.2-1.218 2.093-1.925 0.893-0.725 1.953-1.507 3.181-2.344 0.744-0.502 1.637-1.051 2.678-1.646s2.223-1.246 3.544-1.953c1.47-0.781 2.595-1.47 3.376-2.065 0.8-0.595 1.525-1.33 2.176-2.204 0.428-0.577 0.772-1.293 1.032-2.148 0.261-0.874 0.391-2.111 0.391-3.711 0-2.325-0.623-4.027-1.869-5.106-1.246-1.097-2.846-1.646-4.799-1.646-1.209 0-2.353 0.242-3.432 0.725-1.079 0.465-1.888 1.116-2.427 1.953 0.13 0.595 0.288 1.302 0.474 2.121 0.205 0.818 0.307 1.618 0.307 2.4 0 0.707-0.298 1.339-0.893 1.897-0.577 0.539-1.442 0.809-2.595 0.809-0.93 0-1.646-0.316-2.149-0.949-0.502-0.651-0.753-1.516-0.753-2.595 0-1.004 0.279-2.009 0.837-3.013 0.558-1.023 1.358-1.962 2.399-2.818 1.023-0.837 2.288-1.516 3.795-2.037s3.134-0.781 4.883-0.781c3.813 0 6.836 0.856 9.068 2.567 2.251 1.693 3.376 3.962 3.376 6.808 0 1.358-0.205 2.595-0.614 3.711-0.39 1.116-1.032 2.102-1.925 2.958-0.986 0.949-2.139 1.767-3.46 2.455-1.321 0.67-3.339 1.609-6.055 2.818-1.618 0.725-3.125 1.488-4.52 2.288-1.395 0.781-2.539 1.544-3.432 2.288h21.456v4.939z"></path>
</symbol>
<symbol id="_3" viewBox="0 0 72 48">
<path d="M26.628 13.331c0.926 1.114 1.613 2.423 2.062 3.928 0.463 1.49 0.694 3.053 0.694 4.688 0 1.968-0.282 3.733-0.846 5.295-0.564 1.548-1.338 2.836-2.322 3.863-1.013 1.056-2.214 1.852-3.602 2.387s-2.937 0.803-4.644 0.803c-1.866 0-3.53-0.311-4.991-0.933s-2.648-1.476-3.559-2.561c-0.955-1.128-1.671-2.445-2.148-3.95-0.463-1.519-0.694-3.154-0.694-4.905 0-1.722 0.224-3.306 0.673-4.753 0.463-1.447 1.179-2.756 2.148-3.928 0.926-1.128 2.12-2.018 3.581-2.669s3.132-0.977 5.013-0.977c1.982 0 3.682 0.333 5.1 0.998s2.597 1.57 3.537 2.713zM24.588 21.946c0-3.443-0.593-6.113-1.78-8.008-1.172-1.895-2.771-2.843-4.796-2.843-2.054 0-3.675 0.948-4.861 2.843s-1.78 4.565-1.78 8.008c0 3.27 0.564 5.903 1.693 7.899 1.143 1.982 2.778 2.973 4.904 2.973s3.762-0.991 4.905-2.973c1.143-1.997 1.714-4.63 1.714-7.899zM42.209 41.521c-1.36 0-2.604-0.174-3.732-0.521-1.129-0.333-2.098-0.789-2.908-1.367s-1.44-1.244-1.888-1.996c-0.434-0.752-0.651-1.526-0.651-2.322 0-0.709 0.174-1.345 0.521-1.91 0.347-0.579 0.904-0.868 1.671-0.868 0.868 0 1.526 0.217 1.975 0.651 0.463 0.42 0.694 0.904 0.694 1.454 0 0.463-0.079 1.049-0.239 1.758-0.145 0.709-0.26 1.215-0.347 1.519 0.101 0.13 0.282 0.304 0.543 0.521 0.275 0.217 0.608 0.412 0.998 0.586 0.463 0.217 0.948 0.391 1.454 0.521s1.223 0.196 2.148 0.196c0.868 0 1.7-0.145 2.496-0.434 0.81-0.289 1.519-0.752 2.127-1.389 0.636-0.665 1.128-1.447 1.476-2.344 0.362-0.883 0.543-2.047 0.543-3.494 0-0.781-0.087-1.555-0.26-2.322-0.159-0.767-0.463-1.432-0.911-1.996s-1.063-0.998-1.844-1.302c-0.767-0.318-1.743-0.477-2.93-0.477h-2.843v-2.496h1.888c1.996 0 3.436-0.55 4.319-1.649s1.324-2.756 1.324-4.97c0-1.808-0.427-3.168-1.28-4.080-0.854-0.926-2.062-1.389-3.624-1.389-0.752 0-1.374 0.094-1.866 0.282-0.478 0.174-0.868 0.347-1.172 0.521-0.362 0.203-0.658 0.427-0.89 0.673s-0.405 0.427-0.521 0.543c0.101 0.463 0.224 1.034 0.369 1.714 0.145 0.665 0.217 1.302 0.217 1.91 0 0.535-0.231 1.020-0.694 1.454-0.449 0.42-1.114 0.629-1.997 0.629-0.767 0-1.331-0.275-1.693-0.825-0.347-0.55-0.521-1.186-0.521-1.91 0-0.752 0.21-1.519 0.629-2.3s1.042-1.512 1.866-2.192c0.825-0.68 1.83-1.23 3.017-1.649s2.553-0.629 4.102-0.629c1.78 0 3.248 0.268 4.405 0.803 1.172 0.521 2.091 1.157 2.756 1.91 0.651 0.738 1.1 1.512 1.345 2.322s0.369 1.505 0.369 2.083c0 0.723-0.101 1.454-0.304 2.192-0.203 0.723-0.535 1.396-0.999 2.018-0.506 0.68-1.179 1.302-2.018 1.866-0.825 0.55-1.866 0.998-3.125 1.345v0.347c0.81 0.072 1.671 0.253 2.583 0.543 0.926 0.289 1.758 0.716 2.496 1.28 0.767 0.593 1.396 1.36 1.888 2.3 0.492 0.926 0.738 2.105 0.738 3.537 0 2.778-1.114 5.027-3.342 6.749-2.228 1.736-5.013 2.604-8.355 2.604z"></path>
</symbol>
</defs>
</svg>
